<svg xmlns="http://www.w3.org/2000/svg" width="256" height="256" viewBox="0 0 256 256" version="1.1"><path d="M 123.280 0.736 C 125.909 0.943, 129.959 0.940, 132.280 0.731 C 134.601 0.521, 132.450 0.352, 127.500 0.355 C 122.550 0.358, 120.651 0.530, 123.280 0.736 M 110.269 1.693 C 111.242 1.947, 112.592 1.930, 113.269 1.656 C 113.946 1.382, 113.150 1.175, 111.500 1.195 C 109.850 1.215, 109.296 1.439, 110.269 1.693 M 143.269 1.693 C 144.242 1.947, 145.592 1.930, 146.269 1.656 C 146.946 1.382, 146.150 1.175, 144.500 1.195 C 142.850 1.215, 142.296 1.439, 143.269 1.693 M 104.813 2.683 C 105.534 2.972, 106.397 2.936, 106.729 2.604 C 107.061 2.272, 106.471 2.036, 105.417 2.079 C 104.252 2.127, 104.015 2.364, 104.813 2.683 M 148.750 2.662 C 149.438 2.940, 150.563 2.940, 151.250 2.662 C 151.938 2.385, 151.375 2.158, 150 2.158 C 148.625 2.158, 148.063 2.385, 148.750 2.662 M 99.813 3.683 C 100.534 3.972, 101.397 3.936, 101.729 3.604 C 102.061 3.272, 101.471 3.036, 100.417 3.079 C 99.252 3.127, 99.015 3.364, 99.813 3.683 M 154.813 3.683 C 155.534 3.972, 156.397 3.936, 156.729 3.604 C 157.061 3.272, 156.471 3.036, 155.417 3.079 C 154.252 3.127, 154.015 3.364, 154.813 3.683 M 167 6.831 C 167.825 7.341, 169.625 8.059, 171 8.427 C 172.737 8.892, 173.042 8.813, 172 8.169 C 171.175 7.659, 169.375 6.941, 168 6.573 C 166.263 6.108, 165.958 6.187, 167 6.831 M 175 10 C 175.825 10.533, 176.950 10.969, 177.500 10.969 C 178.050 10.969, 177.825 10.533, 177 10 C 176.175 9.467, 175.050 9.031, 174.500 9.031 C 173.950 9.031, 174.175 9.467, 175 10 M 73 12.500 C 71.625 13.286, 70.950 13.929, 71.500 13.929 C 72.050 13.929, 73.625 13.286, 75 12.500 C 76.375 11.714, 77.050 11.071, 76.500 11.071 C 75.950 11.071, 74.375 11.714, 73 12.500 M 179.083 11.380 C 180.103 12.309, 190 16.982, 190 16.534 C 190 15.970, 180.450 11, 179.367 11 C 178.982 11, 178.854 11.171, 179.083 11.380 M 66.750 15.572 C 63.012 17.600, 63.239 18.445, 67 16.500 C 68.650 15.647, 70 14.735, 70 14.474 C 70 13.831, 69.893 13.867, 66.750 15.572 M 60.441 19.555 C 58.577 21.049, 58.589 21.067, 60.750 20.020 C 61.987 19.420, 63 18.720, 63 18.465 C 63 17.700, 62.481 17.921, 60.441 19.555 M 54.500 23.588 L 51.500 26.165 54.750 24.015 C 56.538 22.832, 58 21.669, 58 21.432 C 58 20.683, 57.577 20.944, 54.500 23.588 M 48.405 28.250 L 46.500 30.500 48.750 28.595 C 50.864 26.805, 51.455 26, 50.655 26 C 50.465 26, 49.453 27.012, 48.405 28.250 M 207.500 29 C 208.495 30.100, 209.535 31, 209.810 31 C 210.085 31, 209.495 30.100, 208.500 29 C 207.505 27.900, 206.465 27, 206.190 27 C 205.915 27, 206.505 27.900, 207.500 29 M 38 37.500 C 33.903 41.625, 30.775 45, 31.050 45 C 31.325 45, 34.903 41.625, 39 37.500 C 43.097 33.375, 46.225 30, 45.950 30 C 45.675 30, 42.097 33.375, 38 37.500 M 217 37.500 C 220.543 41.075, 223.667 44, 223.942 44 C 224.217 44, 221.543 41.075, 218 37.500 C 214.457 33.925, 211.333 31, 211.058 31 C 210.783 31, 213.457 33.925, 217 37.500 M 144.667 45.667 C 144.300 46.033, 144 50.083, 144 54.667 L 144 63 139.161 63 C 135.095 63, 134.155 62.636, 133.284 60.723 C 131.444 56.685, 126.853 51.966, 122.707 49.850 C 119.529 48.229, 117.316 47.874, 112.353 48.190 C 104.570 48.686, 98.666 52.390, 95.567 58.725 C 93.873 62.186, 92.779 63.138, 89.500 64 C 69.395 69.288, 55.090 80.545, 47.039 97.415 C 44.916 101.862, 42.690 107.885, 42.090 110.799 C 39.388 123.935, 41.790 146.214, 47.568 161.600 C 51.884 173.096, 60.283 189.148, 64.095 193.189 L 67.690 197 76.789 197 C 84.850 197, 86.195 196.737, 88.570 194.693 C 90.264 193.236, 91.488 190.934, 91.893 188.443 C 92.361 185.565, 93.002 184.523, 94.267 184.583 C 95.220 184.629, 103.425 184.742, 112.500 184.833 L 129 185 129 188.077 C 129 190.144, 129.959 192.113, 131.923 194.077 C 134.761 196.915, 135.132 196.999, 144.673 196.978 C 152.501 196.960, 154.919 196.604, 156.557 195.228 C 158.894 193.265, 161 188.859, 161 185.932 C 161 184.718, 162.059 183.523, 163.750 182.829 C 173.653 178.768, 179.739 175.545, 184.591 171.793 C 190.332 167.353, 197.755 158.360, 201.114 151.776 L 203.041 148 209.865 148 C 219.842 148, 220 147.717, 220 129.826 C 220 112.908, 219.574 112, 211.640 112 C 208.718 112, 206.814 111.527, 206.611 110.750 C 201.909 92.720, 191.287 78.724, 175.984 70.395 C 171.589 68.003, 170.427 66.707, 168.049 61.546 C 165.013 54.956, 160.712 50.366, 154.515 47.100 C 150.591 45.033, 145.973 44.360, 144.667 45.667 M 226.500 48 C 227.495 49.100, 228.535 50, 228.810 50 C 229.085 50, 228.495 49.100, 227.500 48 C 226.505 46.900, 225.465 46, 225.190 46 C 224.915 46, 225.505 46.900, 226.500 48 M 27.872 48.750 C 26.629 50.336, 26.664 50.371, 28.250 49.128 C 29.916 47.821, 30.445 47, 29.622 47 C 29.415 47, 28.627 47.788, 27.872 48.750 M 104.825 56.473 C 100.315 59.538, 97.449 66.248, 98.426 71.457 L 99.091 75 113.438 75 C 129.185 75, 129 75.076, 129 68.653 C 129 56.999, 114.673 49.781, 104.825 56.473 M 237.500 64 C 238.353 65.650, 239.276 67, 239.551 67 C 239.826 67, 239.353 65.650, 238.500 64 C 237.647 62.350, 236.724 61, 236.449 61 C 236.174 61, 236.647 62.350, 237.500 64 M 14.500 69 C 13.647 70.650, 13.174 72, 13.449 72 C 13.724 72, 14.647 70.650, 15.500 69 C 16.353 67.350, 16.826 66, 16.551 66 C 16.276 66, 15.353 67.350, 14.500 69 M 11.624 74.539 C 10.659 77.053, 10.943 77.702, 12.122 75.675 C 12.706 74.671, 12.973 73.639, 12.715 73.382 C 12.458 73.124, 11.966 73.645, 11.624 74.539 M 9.624 79.539 C 8.659 82.053, 8.943 82.702, 10.122 80.675 C 10.706 79.671, 10.973 78.639, 10.715 78.382 C 10.458 78.124, 9.966 78.645, 9.624 79.539 M 245.031 78.500 C 245.031 79.050, 245.467 80.175, 246 81 C 246.533 81.825, 246.969 82.050, 246.969 81.500 C 246.969 80.950, 246.533 79.825, 246 79 C 245.467 78.175, 245.031 77.950, 245.031 78.500 M 250.079 93.583 C 250.127 94.748, 250.364 94.985, 250.683 94.188 C 250.972 93.466, 250.936 92.603, 250.604 92.271 C 250.272 91.939, 250.036 92.529, 250.079 93.583 M 3.079 100.583 C 3.127 101.748, 3.364 101.985, 3.683 101.188 C 3.972 100.466, 3.936 99.603, 3.604 99.271 C 3.272 98.939, 3.036 99.529, 3.079 100.583 M 252.079 101.583 C 252.127 102.748, 252.364 102.985, 252.683 102.188 C 252.972 101.466, 252.936 100.603, 252.604 100.271 C 252.272 99.939, 252.036 100.529, 252.079 101.583 M 2.158 106 C 2.158 107.375, 2.385 107.938, 2.662 107.250 C 2.940 106.563, 2.940 105.438, 2.662 104.750 C 2.385 104.063, 2.158 104.625, 2.158 106 M 253.079 106.583 C 253.127 107.748, 253.364 107.985, 253.683 107.188 C 253.972 106.466, 253.936 105.603, 253.604 105.271 C 253.272 104.939, 253.036 105.529, 253.079 106.583 M 169.571 109.368 C 165.750 112.972, 165.154 115.053, 167.407 116.923 C 168.526 117.852, 169.396 117.481, 171.657 115.114 C 175.979 110.590, 179.574 110.583, 183.787 115.091 C 186.475 117.966, 186.791 118.066, 188.330 116.527 C 189.826 115.031, 189.840 114.592, 188.476 111.953 C 186.571 108.269, 182.243 106, 177.121 106 C 173.977 106, 172.393 106.707, 169.571 109.368 M 1.158 111 C 1.158 112.375, 1.385 112.938, 1.662 112.250 C 1.940 111.563, 1.940 110.438, 1.662 109.750 C 1.385 109.063, 1.158 109.625, 1.158 111 M 254.195 112.500 C 254.215 114.150, 254.439 114.704, 254.693 113.731 C 254.947 112.758, 254.930 111.408, 254.656 110.731 C 254.382 110.054, 254.175 110.850, 254.195 112.500 M 0.360 128 C 0.360 133.225, 0.529 135.363, 0.735 132.750 C 0.941 130.137, 0.941 125.862, 0.735 123.250 C 0.529 120.638, 0.360 122.775, 0.360 128 M 255.300 128 C 255.300 131.025, 255.487 132.262, 255.716 130.750 C 255.945 129.238, 255.945 126.763, 255.716 125.250 C 255.487 123.737, 255.300 124.975, 255.300 128 M 254.158 144 C 254.158 145.375, 254.385 145.938, 254.662 145.250 C 254.940 144.563, 254.940 143.438, 254.662 142.750 C 254.385 142.063, 254.158 142.625, 254.158 144 M 1.158 145 C 1.158 146.375, 1.385 146.938, 1.662 146.250 C 1.940 145.563, 1.940 144.438, 1.662 143.750 C 1.385 143.063, 1.158 143.625, 1.158 145 M 253.158 150 C 253.158 151.375, 253.385 151.938, 253.662 151.250 C 253.940 150.563, 253.940 149.438, 253.662 148.750 C 253.385 148.063, 253.158 148.625, 253.158 150 M 2.158 151 C 2.158 152.375, 2.385 152.938, 2.662 152.250 C 2.940 151.563, 2.940 150.438, 2.662 149.750 C 2.385 149.063, 2.158 149.625, 2.158 151 M 252.079 155.583 C 252.127 156.748, 252.364 156.985, 252.683 156.188 C 252.972 155.466, 252.936 154.603, 252.604 154.271 C 252.272 153.939, 252.036 154.529, 252.079 155.583 M 4.079 160.583 C 4.127 161.748, 4.364 161.985, 4.683 161.188 C 4.972 160.466, 4.936 159.603, 4.604 159.271 C 4.272 158.939, 4.036 159.529, 4.079 160.583 M 243.459 181.067 C 243.096 181.653, 243.014 182.348, 243.276 182.610 C 243.538 182.872, 244.019 182.392, 244.345 181.543 C 245.021 179.781, 244.445 179.471, 243.459 181.067 M 17 192 C 17.589 193.100, 18.295 194, 18.570 194 C 18.845 194, 18.589 193.100, 18 192 C 17.411 190.900, 16.705 190, 16.430 190 C 16.155 190, 16.411 190.900, 17 192 M 22 200.378 C 22 200.585, 22.788 201.373, 23.750 202.128 C 25.336 203.371, 25.371 203.336, 24.128 201.750 C 22.821 200.084, 22 199.555, 22 200.378 M 230.872 202.750 C 229.629 204.336, 229.664 204.371, 231.250 203.128 C 232.213 202.373, 233 201.585, 233 201.378 C 233 200.555, 232.179 201.084, 230.872 202.750 M 28 208.378 C 28 208.585, 28.788 209.373, 29.750 210.128 C 31.336 211.371, 31.371 211.336, 30.128 209.750 C 28.821 208.084, 28 207.555, 28 208.378 M 224.405 211.250 L 222.500 213.500 224.750 211.595 C 226.864 209.805, 227.455 209, 226.655 209 C 226.465 209, 225.453 210.012, 224.405 211.250 M 37.500 219 C 39.648 221.200, 41.631 223, 41.906 223 C 42.181 223, 40.648 221.200, 38.500 219 C 36.352 216.800, 34.369 215, 34.094 215 C 33.819 215, 35.352 216.800, 37.500 219 M 209.405 226.250 L 207.500 228.500 209.750 226.595 C 211.864 224.805, 212.455 224, 211.655 224 C 211.465 224, 210.453 225.012, 209.405 226.250 M 46.500 227 C 47.495 228.100, 48.535 229, 48.810 229 C 49.085 229, 48.495 228.100, 47.500 227 C 46.505 225.900, 45.465 225, 45.190 225 C 44.915 225, 45.505 225.900, 46.500 227 M 181.507 243.989 C 181.157 244.555, 181.558 244.723, 182.448 244.382 C 184.180 243.717, 184.497 243, 183.059 243 C 182.541 243, 181.843 243.445, 181.507 243.989 M 82 248 C 82.825 248.533, 83.950 248.969, 84.500 248.969 C 85.050 248.969, 84.825 248.533, 84 248 C 83.175 247.467, 82.050 247.031, 81.500 247.031 C 80.950 247.031, 81.175 247.467, 82 248 M 170.500 248.535 C 167.999 249.740, 167.916 249.878, 170 249.369 C 172.834 248.677, 176.018 247.053, 174.500 247.076 C 173.950 247.084, 172.150 247.740, 170.500 248.535" stroke="none" fill="#fafbfb" fill-rule="evenodd"/><path d="M 106.500 2.591 C 69.764 9.073, 36.290 32.425, 18.136 64.234 C 5.338 86.658, 0.395 106.643, 1.290 132.334 C 2.043 153.953, 5.401 167.442, 14.532 185.539 C 29.037 214.285, 52.014 235.385, 81.179 246.742 C 98.878 253.634, 111.047 255.990, 128.500 255.902 C 162.076 255.733, 193.430 242.557, 217.496 218.500 C 241.631 194.376, 254.987 162.278, 254.997 128.381 C 255.004 102.026, 247.379 77.874, 231.670 54.500 C 225.975 46.026, 208.943 29.323, 199.586 23.035 C 184.709 13.039, 165.860 5.474, 148.500 2.532 C 137.439 0.657, 117.299 0.686, 106.500 2.591 M 144.667 45.667 C 144.300 46.033, 144 50.083, 144 54.667 L 144 63 139.161 63 C 135.095 63, 134.155 62.636, 133.284 60.723 C 131.444 56.685, 126.853 51.966, 122.707 49.850 C 119.529 48.229, 117.316 47.874, 112.353 48.190 C 104.570 48.686, 98.666 52.390, 95.567 58.725 C 93.873 62.186, 92.779 63.138, 89.500 64 C 69.395 69.288, 55.090 80.545, 47.039 97.415 C 44.916 101.862, 42.690 107.885, 42.090 110.799 C 39.388 123.935, 41.790 146.214, 47.568 161.600 C 51.884 173.096, 60.283 189.148, 64.095 193.189 L 67.690 197 76.789 197 C 84.850 197, 86.195 196.737, 88.570 194.693 C 90.264 193.236, 91.488 190.934, 91.893 188.443 C 92.361 185.565, 93.002 184.523, 94.267 184.583 C 95.220 184.629, 103.425 184.742, 112.500 184.833 L 129 185 129 188.077 C 129 190.144, 129.959 192.113, 131.923 194.077 C 134.761 196.915, 135.132 196.999, 144.673 196.978 C 152.501 196.960, 154.919 196.604, 156.557 195.228 C 158.894 193.265, 161 188.859, 161 185.932 C 161 184.718, 162.059 183.523, 163.750 182.829 C 173.653 178.768, 179.739 175.545, 184.591 171.793 C 190.332 167.353, 197.755 158.360, 201.114 151.776 L 203.041 148 209.865 148 C 219.842 148, 220 147.717, 220 129.826 C 220 112.908, 219.574 112, 211.640 112 C 208.718 112, 206.814 111.527, 206.611 110.750 C 201.909 92.720, 191.287 78.724, 175.984 70.395 C 171.589 68.003, 170.427 66.707, 168.049 61.546 C 165.013 54.956, 160.712 50.366, 154.515 47.100 C 150.591 45.033, 145.973 44.360, 144.667 45.667 M 104.825 56.473 C 100.315 59.538, 97.449 66.248, 98.426 71.457 L 99.091 75 113.438 75 C 129.185 75, 129 75.076, 129 68.653 C 129 56.999, 114.673 49.781, 104.825 56.473 M 169.571 109.368 C 165.750 112.972, 165.154 115.053, 167.407 116.923 C 168.526 117.852, 169.396 117.481, 171.657 115.114 C 175.979 110.590, 179.574 110.583, 183.787 115.091 C 186.475 117.966, 186.791 118.066, 188.330 116.527 C 189.826 115.031, 189.840 114.592, 188.476 111.953 C 186.571 108.269, 182.243 106, 177.121 106 C 173.977 106, 172.393 106.707, 169.571 109.368" stroke="none" fill="#1c8c8b" fill-rule="evenodd"/></svg>